<svg width="44" height="44" viewBox="0 0 44 44" fill="none" xmlns="http://www.w3.org/2000/svg">
<path d="M14.1499 29.0586C13.4031 26.183 13.1076 22.6607 13.0256 20.7486C13.002 20.1968 13.4477 19.75 14 19.75H30C30.5523 19.75 30.998 20.1968 30.9744 20.7486C30.8924 22.6607 30.5969 26.183 29.8501 29.0586C29.6501 29.8287 29.0868 30.4292 28.3043 30.5736C27.133 30.7896 25.1135 31 22 31C18.8865 31 16.8669 30.7896 15.6957 30.5736C14.9132 30.4292 14.3499 29.8287 14.1499 29.0586Z" fill="#F2F3F5"/>
<path d="M13.0256 20.7486L12.2763 20.7807L13.0256 20.7486ZM14.1499 29.0586L14.8758 28.8701L14.1499 29.0586ZM15.6957 30.5736L15.8317 29.836H15.8317L15.6957 30.5736ZM30.9744 20.7486L31.7237 20.7807V20.7807L30.9744 20.7486ZM29.8501 29.0586L30.576 29.2471L29.8501 29.0586ZM28.3043 30.5736L28.1683 29.836L28.3043 30.5736ZM12.2763 20.7807C12.3591 22.7125 12.6576 26.296 13.424 29.2471L14.8758 28.8701C14.1487 26.07 13.856 22.6089 13.7749 20.7165L12.2763 20.7807ZM15.5596 31.3111C16.7892 31.5379 18.857 31.75 22 31.75V30.25C18.916 30.25 16.9446 30.0413 15.8317 29.836L15.5596 31.3111ZM30.2251 20.7165C30.144 22.6089 29.8513 26.07 29.1242 28.8701L30.576 29.2471C31.3424 26.296 31.6409 22.7125 31.7237 20.7807L30.2251 20.7165ZM28.1683 29.836C27.0553 30.0413 25.084 30.25 22 30.25V31.75C25.143 31.75 27.2107 31.5379 28.4404 31.3111L28.1683 29.836ZM14 20.5H30V19H14V20.5ZM29.1242 28.8701C28.986 29.4022 28.6218 29.7523 28.1683 29.836L28.4404 31.3111C29.5517 31.1061 30.3142 30.2552 30.576 29.2471L29.1242 28.8701ZM31.7237 20.7807C31.7664 19.7845 30.9608 19 30 19V20.5C30.1438 20.5 30.2297 20.6092 30.2251 20.7165L31.7237 20.7807ZM13.424 29.2471C13.6858 30.2552 14.4483 31.1061 15.5596 31.3111L15.8317 29.836C15.3781 29.7523 15.014 29.4022 14.8758 28.8701L13.424 29.2471ZM13.7749 20.7165C13.7703 20.6092 13.8562 20.5 14 20.5V19C13.0392 19 12.2336 19.7845 12.2763 20.7807L13.7749 20.7165Z" fill="#353949"/>
<path d="M16 19.75C16 20.1642 16.3358 20.5 16.75 20.5C17.1642 20.5 17.5 20.1642 17.5 19.75H16ZM26.5 19.75C26.5 20.1642 26.8358 20.5 27.25 20.5C27.6642 20.5 28 20.1642 28 19.75H26.5ZM17.5 19.75V18H16V19.75H17.5ZM21.75 13.75H22.25V12.25H21.75V13.75ZM26.5 18V19.75H28V18H26.5ZM22.25 13.75C24.5972 13.75 26.5 15.6528 26.5 18H28C28 14.8244 25.4256 12.25 22.25 12.25V13.75ZM17.5 18C17.5 15.6528 19.4028 13.75 21.75 13.75V12.25C18.5744 12.25 16 14.8244 16 18H17.5Z" fill="#353949"/>
<path d="M19 24.25V26.5M25 24.25V26.5" stroke="#353949" stroke-width="1.5" stroke-linecap="round" stroke-linejoin="round"/>
<rect x="0.5" y="0.5" width="43" height="43" rx="21.5" stroke="#E2E4EB"/>
</svg>
