<svg width="44" height="44" viewBox="0 0 44 44" fill="none" xmlns="http://www.w3.org/2000/svg">
<path d="M22 16.587C17.6516 11.3327 13.0604 15.0661 13 19.0907C13 25.0822 20.2793 30 22 30C23.7207 30 31 25.0822 31 19.0907C30.9396 15.0661 26.3484 11.3327 22 16.587Z" fill="#F2F3F5"/>
<path d="M13 19.0907L12.25 19.0795V19.0907H13ZM22 16.587L21.4222 17.0652C21.5647 17.2374 21.7765 17.337 22 17.337C22.2235 17.337 22.4353 17.2374 22.5778 17.0652L22 16.587ZM31 19.0907H31.7501L31.7499 19.0795L31 19.0907ZM13.7499 19.102C13.7764 17.3404 14.8018 15.6848 16.2048 15.0409C16.8902 14.7264 17.6827 14.6422 18.544 14.9114C19.4145 15.1836 20.4021 15.8326 21.4222 17.0652L22.5778 16.1089C21.4237 14.7143 20.2067 13.8596 18.9915 13.4797C17.7671 13.097 16.5927 13.2125 15.5792 13.6776C13.5845 14.593 12.2841 16.8164 12.2501 19.0795L13.7499 19.102ZM22 29.25C21.9304 29.25 21.7358 29.2165 21.3989 29.0811C21.0807 28.9532 20.6911 28.7573 20.2537 28.4949C19.3795 27.9703 18.3541 27.2039 17.3775 26.2544C15.4023 24.3341 13.75 21.7895 13.75 19.0907H12.25C12.25 22.3834 14.2373 25.2935 16.3319 27.3299C17.3903 28.3589 18.5073 29.1963 19.4819 29.7811C19.969 30.0733 20.4304 30.3084 20.8396 30.4729C21.2301 30.6299 21.6394 30.75 22 30.75V29.25ZM31.7499 19.0795C31.7159 16.8164 30.4155 14.593 28.4208 13.6776C27.4073 13.2125 26.2329 13.097 25.0084 13.4797C23.7932 13.8596 22.5763 14.7143 21.4222 16.1089L22.5778 17.0652C23.5979 15.8326 24.5855 15.1836 25.456 14.9114C26.3173 14.6422 27.1098 14.7264 27.7952 15.0409C29.1982 15.6848 30.2236 17.3404 30.2501 19.102L31.7499 19.0795ZM22 30.75C22.3605 30.75 22.7698 30.6299 23.1604 30.4729C23.5696 30.3084 24.031 30.0733 24.518 29.7811C25.4926 29.1963 26.6097 28.3589 27.6681 27.3299C29.7627 25.2935 31.75 22.3834 31.75 19.0907H30.25C30.25 21.7895 28.5977 24.3341 26.6224 26.2544C25.6459 27.2039 24.6205 27.9703 23.7463 28.4949C23.3089 28.7573 22.9193 28.9532 22.6011 29.0811C22.2642 29.2165 22.0696 29.25 22 29.25V30.75Z" fill="#353949"/>
<rect x="0.5" y="0.5" width="43" height="43" rx="21.5" stroke="#E2E4EB"/>
</svg>
