<svg width="24" height="24" viewBox="0 0 24 24" fill="none" xmlns="http://www.w3.org/2000/svg">
<path d="M12 6.58704C7.6516 1.33266 3.06041 5.06612 3 9.09071C3 15.0822 10.2793 20 12 20C13.7207 20 21 15.0822 21 9.09071C20.9396 5.06612 16.3484 1.33266 12 6.58704Z" fill="#F2F3F5"/>
<path d="M3 9.09071L2.25 9.07945V9.09071H3ZM12 6.58704L11.4222 7.06521C11.5647 7.23738 11.7765 7.33704 12 7.33704C12.2235 7.33704 12.4353 7.23738 12.5778 7.06521L12 6.58704ZM21 9.09071H21.7501L21.7499 9.07945L21 9.09071ZM3.74992 9.10196C3.77636 7.34039 4.80175 5.68479 6.20482 5.04091C6.89023 4.72637 7.68269 4.64218 8.54398 4.91143C9.41449 5.18355 10.4021 5.83256 11.4222 7.06521L12.5778 6.10887C11.4237 4.71433 10.2067 3.85963 8.99153 3.47975C7.76711 3.09699 6.59267 3.21251 5.57919 3.67761C3.58446 4.59301 2.28405 6.81644 2.25008 9.07945L3.74992 9.10196ZM12 19.25C11.9304 19.25 11.7358 19.2165 11.3989 19.0811C11.0807 18.9532 10.6911 18.7573 10.2537 18.4949C9.37949 17.9703 8.3541 17.2039 7.37754 16.2544C5.40233 14.3341 3.75 11.7895 3.75 9.09071H2.25C2.25 12.3834 4.23732 15.2935 6.33193 17.3299C7.39027 18.3589 8.50735 19.1963 9.48194 19.7811C9.96896 20.0733 10.4304 20.3084 10.8396 20.4729C11.2301 20.6299 11.6394 20.75 12 20.75V19.25ZM21.7499 9.07945C21.7159 6.81644 20.4155 4.59301 18.4208 3.67761C17.4073 3.21251 16.2329 3.09699 15.0084 3.47975C13.7932 3.85963 12.5763 4.71433 11.4222 6.10887L12.5778 7.06521C13.5979 5.83256 14.5855 5.18355 15.456 4.91143C16.3173 4.64218 17.1098 4.72637 17.7952 5.04091C19.1982 5.68479 20.2236 7.34039 20.2501 9.10196L21.7499 9.07945ZM12 20.75C12.3605 20.75 12.7698 20.6299 13.1604 20.4729C13.5696 20.3084 14.031 20.0733 14.518 19.7811C15.4926 19.1963 16.6097 18.3589 17.6681 17.3299C19.7627 15.2935 21.75 12.3834 21.75 9.09071H20.25C20.25 11.7895 18.5977 14.3341 16.6224 16.2544C15.6459 17.2039 14.6205 17.9703 13.7463 18.4949C13.3089 18.7573 12.9193 18.9532 12.6011 19.0811C12.2642 19.2165 12.0696 19.25 12 19.25V20.75Z" fill="#353949"/>
</svg>
