<svg width="44" height="44" viewBox="0 0 44 44" fill="none" xmlns="http://www.w3.org/2000/svg">
<path fill-rule="evenodd" clip-rule="evenodd" d="M14.1114 14.7501C15.2442 13.5589 15.6445 13.2248 16.1272 13.0693C16.4613 12.9819 16.8116 12.9771 17.148 13.0552C17.5908 13.1837 17.7079 13.2814 19.1599 14.7257C20.4356 15.9941 20.563 16.1316 20.6853 16.3796C20.9191 16.8149 20.9556 17.3292 20.7857 17.7931C20.657 18.1465 20.4742 18.3804 19.7006 19.1552L19.196 19.6602C19.0635 19.7947 19.0323 19.9988 19.1187 20.1665C20.2398 22.0759 21.8304 23.6682 23.7399 24.7927C23.9597 24.9101 24.2303 24.8722 24.4092 24.6988L24.8945 24.2221C25.1945 23.9152 25.5121 23.626 25.8458 23.356C26.3699 23.0347 27.0229 23.0061 27.5732 23.2802C27.8423 23.4087 27.9311 23.4884 29.2466 24.7991C30.6034 26.1496 30.642 26.1921 30.7913 26.5017C31.0723 27.0144 31.0694 27.6353 30.7836 28.1453C30.6381 28.4331 30.5493 28.5372 29.786 29.316C29.3252 29.7863 28.8914 30.2155 28.8219 30.2784C28.1921 30.7989 27.3842 31.0543 26.5692 30.9904C25.078 30.8547 23.6347 30.3946 22.3407 29.6424C19.4742 28.1263 17.0339 25.9173 15.2429 23.2172C14.8528 22.6521 14.506 22.0585 14.2054 21.4413C13.3991 20.0616 12.9827 18.4895 13.0006 16.8923C13.0621 16.0567 13.4635 15.2827 14.1114 14.7501Z" stroke="#7D818E" stroke-width="1.5" stroke-linecap="round" stroke-linejoin="round"/>
<rect x="0.5" y="0.5" width="43" height="43" rx="21.5" stroke="#E2E4EB"/>
</svg>
